<svg id="Ebene_1" data-name="Ebene 1" xmlns="http://www.w3.org/2000/svg" viewBox="0 0 117.2 62.61">
  <defs>
    <style>
      .cls-1 {
        fill: #3d3d3c;
      }

      .cls-2 {
        fill: #fff;
      }

      .cls-3 {
        fill: #f2cd25;
      }
    </style>
  </defs>
  <g>
    <path class="cls-1" d="M58.6,61.61C26.84,61.61,1,48,1,31.31S26.84,1,58.6,1s57.6,13.6,57.6,30.31S90.36,61.61,58.6,61.61Z"/>
    <path class="cls-2" d="M58.6,2c15.33,0,29.71,3.17,40.5,8.93,10.38,5.55,16.1,12.79,16.1,20.38s-5.72,14.82-16.1,20.37c-10.79,5.76-25.17,8.93-40.5,8.93s-29.71-3.17-40.49-8.93C7.72,46.13,2,38.9,2,31.31S7.72,16.48,18.11,10.93C28.89,5.17,43.27,2,58.6,2m0-2C26.24,0,0,14,0,31.31s26.24,31.3,58.6,31.3,58.6-14,58.6-31.3S91,0,58.6,0Z"/>
  </g>
  <g>
    <g>
      <g>
        <path class="cls-3" d="M55.45,27.58,53.06,41.21H49.63l.88-4.92h-3.7L46,41.21H42.53l2.41-13.63h3.41l-1,5.75H51l1-5.75Z"/>
        <path class="cls-3" d="M61.19,37.07H58.93l-.74,4.14h-3.4l2.4-13.63H63a4,4,0,0,1,3,1,2.84,2.84,0,0,1,.66,1.93,5,5,0,0,1-.08.84l-.38,2.14a4,4,0,0,1-1.66,2.58A5.53,5.53,0,0,1,61.19,37.07Zm.58-6.54h-1.7l-.63,3.58h1.69a1.6,1.6,0,0,0,1.8-1.38l.13-.78a1.82,1.82,0,0,0,0-.45,1,1,0,0,0-.29-.63A1.31,1.31,0,0,0,61.77,30.53Z"/>
        <path class="cls-3" d="M71.47,41.48c-1.81,0-3.06-.39-3.75-1.18A3.44,3.44,0,0,1,67,38a7.71,7.71,0,0,1,.13-1.38l.78-4.35q.86-4.8,6.15-4.8a5.17,5.17,0,0,1,3.34.94A3.17,3.17,0,0,1,78.53,31a5.14,5.14,0,0,1-.22,1.5,5,5,0,0,1-.42,1.11l-.21.38H74.33a3.06,3.06,0,0,0,.62-2,1.6,1.6,0,0,0-.36-1.1,1.34,1.34,0,0,0-1.06-.41,2.18,2.18,0,0,0-2.27,2.12l-.66,3.83a4.54,4.54,0,0,0-.1,1c0,.84.5,1.25,1.5,1.25,1.2,0,1.92-.67,2.16-2h3.41l-.1.55Q76.72,41.48,71.47,41.48Z"/>
      </g>
      <path class="cls-2" d="M81.54,41.12l-2.14,0V40c0-4,2.26-11.46,10.35-11.46,2.32,0,10,.73,10.79,10.17a.27.27,0,0,0,.26.23h5.86a.27.27,0,0,0,.11-.08l-1-5.13.06-.24c.46-1.81.85-4.87.19-5.73-.06-.08-.11-.11-.26-.11h-.14L83.19,24.41l-.18,0L75.89,23.1a2.38,2.38,0,0,1-.93-.38L64.32,15.43a5.4,5.4,0,0,0-2.92-.92C29,13.81,12,27.51,9,30.26a.27.27,0,0,0-.08.19v5c0,2.08,5.4,3.14,9.06,3.2l.18,0a.23.23,0,0,0,.19,0,.29.29,0,0,0,.11-.18C18.89,35.35,20.94,28,29.61,28s11.18,7.84,11.23,12v1.07l-2.15,0V40c0-.4-.24-9.86-9.08-9.86-2.9,0-7.94,1.13-9.08,8.63a2.38,2.38,0,0,1-1,1.61,2.43,2.43,0,0,1-1.73.42c-1.47,0-11.12-.43-11.08-5.36v-5a2.4,2.4,0,0,1,.79-1.78c3.17-2.85,20.67-17,53.92-16.31a7.49,7.49,0,0,1,4.09,1.3L76.17,21a.18.18,0,0,0,.1,0l7.19,1.3,22.39,3.24a2.35,2.35,0,0,1,1.86.95c1.42,1.84.56,6,.24,7.33l1.11,5.54-.23.36a2.54,2.54,0,0,1-2.16,1.4h-5.86a2.39,2.39,0,0,1-2.39-2.19c-.63-7.15-5.7-8.22-8.66-8.22-8,0-8.2,9-8.2,9.35Z"/>
    </g>
    <path class="cls-2" d="M41,25.39c-10,0-10.72-1.06-11-1.44a.72.72,0,0,1-.05-.69c.11-.24,3.22-6.81,28.7-7.65a5.75,5.75,0,0,1,4.55,1.26L73.38,24.7l-27.11.61C44.26,25.36,42.5,25.39,41,25.39Zm-9.89-1.91c.65.31,3.45,1.08,15.18.76l16-.36-2.85-7.23a5.93,5.93,0,0,0-.72,0h0C36.74,17.4,31.91,22.31,31.07,23.48Zm29.59-6.7,2.78,7.07,6.88-.15-7.86-6.06A3.71,3.71,0,0,0,60.66,16.78ZM30.93,23.7v0Z"/>
  </g>
</svg>
