<svg id="Ebene_1" data-name="Ebene 1" xmlns="http://www.w3.org/2000/svg" viewBox="0 0 128 128">
  <defs>
    <style>
      .cls-1 {
        fill: none;
        stroke: #20201e;
        stroke-miterlimit: 10;
        stroke-width: 10px;
      }
    </style>
  </defs>
  <path class="cls-1" d="M47.2,19.49l-11-11a11.69,11.69,0,0,0-16.54,0l-4.85,4.84C-3,31.19,5.84,51.27,23.7,69.13L58.87,104.3c17.86,17.86,37.94,26.75,55.8,8.89l4.84-4.85a11.69,11.69,0,0,0,0-16.54l-11-11A11.69,11.69,0,0,0,92,80.8l-5.3,5.29C81.57,91.2,36.8,46.43,41.91,41.33L47.2,36A11.69,11.69,0,0,0,47.2,19.49Z"/>
</svg>
