<svg xmlns="http://www.w3.org/2000/svg" viewBox="0 0 563.89 563.89">
  <defs>
    <style>
      .cls-1 {
        fill: #f3ce0b;
      }
    </style>
  </defs>
  <g id="Ebene_2" data-name="Ebene 2">
    <g id="Ebene_1-2" data-name="Ebene 1">
      <g>
        <path class="cls-1" d="M282,563.89C126.48,563.89,0,437.41,0,281.94S126.48,0,282,0,563.89,126.48,563.89,281.94,437.41,563.89,282,563.89Zm0-548.17c-146.8,0-266.23,119.43-266.23,266.22S135.15,548.17,282,548.17,548.17,428.74,548.17,281.94,428.75,15.72,282,15.72Zm0,521.58c-140.81,0-255.36-114.55-255.36-255.36S141.14,26.59,282,26.59,537.31,141.14,537.31,281.94,422.75,537.3,282,537.3Zm0-495c-132.14,0-239.64,107.5-239.64,239.63S149.81,521.58,282,521.58s239.64-107.5,239.64-239.64S414.08,42.31,282,42.31Z"/>
        <path class="cls-1" d="M282,367.54a85.6,85.6,0,1,1,85.59-85.6A85.7,85.7,0,0,1,282,367.54Zm0-163.33a77.74,77.74,0,1,0,77.73,77.73A77.83,77.83,0,0,0,282,204.21Zm0,122.08a44.35,44.35,0,1,1,44.34-44.35A44.4,44.4,0,0,1,282,326.29Zm0-80.83a36.49,36.49,0,1,0,36.48,36.48A36.52,36.52,0,0,0,282,245.46Z"/>
        <path class="cls-1" d="M303.06,204.21H260.83l1.61-5.1c7.15-22.85,7.16-43.74,0-63.85-14.23-35.38-23.93-66.65-29.6-95.44L232,35.13h21.4l.64,3.16a368.37,368.37,0,0,0,24.86,77.45H285A368.22,368.22,0,0,0,309.9,38.29l.63-3.16h21.41L331,39.82c-5.68,28.81-15.39,60.08-29.66,95.6-7.07,20-7.05,40.84.1,63.69Zm-31.64-7.86h21.05c-6.05-22.35-5.53-43.76,1.54-63.71C307.38,99.36,316.65,70,322.35,43H317a378.64,378.64,0,0,1-25.81,78.31l-1,2.3H273.78l-1-2.3A377.8,377.8,0,0,1,246.94,43h-5.39c5.68,27,15,56.35,28.28,89.5C277,152.58,277.47,174,271.42,196.35Z"/>
        <path class="cls-1" d="M215.81,236,213.75,231c-9.2-22.11-22.62-38.11-41-48.93-33.63-18-61.16-35.68-84-54.09L85,125l16.4-13.76,2.52,2a368.48,368.48,0,0,0,68.83,43.35l4.73-4a369.34,369.34,0,0,0-30.74-75.31L145.2,74.5l16.39-13.76,2.31,4.19c14.16,25.7,26.83,55.89,38.73,92.29,7.41,19.83,20.85,35.82,41,48.72l4.5,2.89ZM97.4,124.86c21.73,17,47.69,33.56,79.19,50.38,18.38,10.82,32.54,26.89,42.28,47.9L235,209.61c-19-13.23-32.37-30-39.78-49.79-11.15-34.1-22.91-62.54-35.91-86.89l-4.13,3.46A378.43,378.43,0,0,1,185.74,153l.68,2.44-12.51,10.49-2.28-1.09a378,378,0,0,1-70.1-43.4Z"/>
        <path class="cls-1" d="M201.73,289.24,197,286.78c-21.26-11-41.83-14.65-62.87-11.13-37.29,7.86-69.77,12-99.13,12.57l-4.78.1,3.72-21.08,3.22-.08a368.7,368.7,0,0,0,80.59-11L118.8,250a369,369,0,0,0-71.95-37.93l-3-1.17,3.71-21.09L52,191.58c27.37,10.59,56.48,25.57,89,45.8,18.43,10.43,39,14.05,62.75,11l5.3-.69ZM40.54,274.93l-.93,5.31c27.6-.91,58.1-4.95,93-12.32,21-3.52,42.22-.31,63.18,9.52l3.65-20.72c-23,2.07-44-2.14-62.48-12.58C106.55,225.19,79.26,211,53.64,200.67L52.7,206a378.23,378.23,0,0,1,72.64,39l2.09,1.43-2.84,16.08-2.45.63A378.14,378.14,0,0,1,40.54,274.93Z"/>
        <path class="cls-1" d="M93.2,448.64,82.49,430.11,84.91,428a369.68,369.68,0,0,0,54.65-60.26l-3.09-5.35A368.88,368.88,0,0,0,57,379.56l-3.05,1-10.7-18.54,4.52-1.55c27.78-9.49,59.71-16.72,97.62-22.11,20.81-3.86,38.89-14.31,55.1-31.94l3.62-3.93,21.11,36.56L220,340.26c-23.36,5.23-41.45,15.66-55.31,31.88-23.52,30-45.75,54.05-67.85,73.36Zm-.69-16.9,2.7,4.67c20.55-18.44,41.32-41.14,63.36-69.24,13.84-16.22,32.14-27.38,54.51-33.32l-10.52-18.22c-16.33,16.41-35.13,26.67-55.95,30.52-35.5,5.06-65.55,11.7-91.8,20.28l2.69,4.67a378.4,378.4,0,0,1,80.72-16.81l2.52-.24,8.16,14.13-1.48,2.07A378.08,378.08,0,0,1,92.51,431.74Z"/>
        <path class="cls-1" d="M244.51,531l-20.12-7.32.49-3.19A368.86,368.86,0,0,0,228,439.18l-5.8-2.11a368.43,368.43,0,0,0-49.85,64.27l-1.68,2.76-20.11-7.33,2.47-4.09c15.18-25.11,35-51.18,60.56-79.68,13.47-16.34,20.6-36,21.69-59.89l.24-5.34,39.68,14.44L272,366.46c-14.54,19-21.7,38.64-21.88,60,1.27,38.11-.31,70.81-4.83,99.81Zm-11.39-12.51,5.06,1.84c3.9-27.32,5.22-58.06,4-93.77.17-21.32,7-41.63,20.34-60.56l-19.78-7.19c-2,23.06-9.76,43-23.23,59.34-24,26.71-42.71,51.11-57.29,74.55l5.06,1.84a378.62,378.62,0,0,1,51-64.76l1.77-1.81,15.34,5.59.19,2.53A378.31,378.31,0,0,1,233.12,518.46Z"/>
        <path class="cls-1" d="M319.39,531l-.74-4.72c-4.52-29-6.1-61.72-4.82-100-.19-21.17-7.35-40.79-21.89-59.81l-3.25-4.25,39.68-14.44.25,5.34c1.09,23.92,8.21,43.55,21.79,60,25.46,28.37,45.27,54.44,60.45,79.56l2.48,4.09-20.12,7.32-1.67-2.75a369.35,369.35,0,0,0-49.86-64.27l-5.8,2.11A368.86,368.86,0,0,0,339,520.46l.49,3.19ZM301.33,366c13.33,18.93,20.17,39.23,20.35,60.4-1.18,35.84.13,66.59,4,93.93l5.06-1.84a378.31,378.31,0,0,1-2.53-82.4l.19-2.53,15.34-5.59,1.78,1.82a378.66,378.66,0,0,1,51,64.75l5.06-1.84c-14.59-23.45-33.34-47.85-57.19-74.42-13.57-16.45-21.38-36.4-23.34-59.47Z"/>
        <path class="cls-1" d="M470.7,448.64l-3.6-3.14c-22.1-19.31-44.33-43.35-68-73.48-13.75-16.1-31.84-26.53-55.21-31.76l-5.22-1.17,21.11-36.56,3.62,3.93c16.21,17.63,34.29,28.08,55.27,32,37.75,5.37,69.68,12.61,97.46,22.09l4.52,1.55L510,380.59l-3.05-1a368.75,368.75,0,0,0-79.51-17.19l-3.08,5.35A369.13,369.13,0,0,0,479,428l2.42,2.12ZM350.81,333.85c22.38,5.94,40.66,17.09,54.41,33.19,22.14,28.23,42.91,50.93,63.47,69.37l2.69-4.67a378.5,378.5,0,0,1-54.91-61.49L415,368.19l8.16-14.14,2.52.24a378.4,378.4,0,0,1,80.72,16.81l2.69-4.67c-26.24-8.58-56.28-15.22-91.64-20.25-21-3.88-39.78-14.14-56.11-30.55Z"/>
        <path class="cls-1" d="M362.16,289.24l-7.33-41.59,5.31.69c23.73,3.08,44.31-.53,62.88-11,32.36-20.14,61.47-35.13,88.85-45.72l4.46-1.73,3.72,21.09-3,1.17A369,369,0,0,0,445.09,250l1.07,6.08a368.86,368.86,0,0,0,80.59,11l3.22.08,3.72,21.08-4.78-.1c-29.35-.59-61.84-4.71-99.29-12.61-20.89-3.49-41.45.15-62.71,11.17Zm52.51-22.72a99.45,99.45,0,0,1,16.4,1.37c35.1,7.39,65.61,11.44,93.21,12.35l-.93-5.31a378.05,378.05,0,0,1-81.59-11.81l-2.46-.63-2.83-16.08,2.09-1.43a377.86,377.86,0,0,1,72.63-39l-.94-5.3C484.63,211,457.35,225.19,427,244.06c-18.56,10.51-39.55,14.74-62.62,12.66l3.65,20.72C383.55,270.18,399.15,266.52,414.67,266.52Z"/>
        <path class="cls-1" d="M348.08,236l-32.34-27.14,4.5-2.89c20.17-12.9,33.61-28.89,41.08-48.87,11.83-36.23,24.5-66.42,38.67-92.14l2.31-4.19L418.7,74.5l-1.55,2.83a368.75,368.75,0,0,0-30.73,75.31l4.72,4A368.16,368.16,0,0,0,460,113.26l2.52-2L478.89,125l-3.72,3c-22.86,18.41-50.39,36.13-84.17,54.17-18.24,10.74-31.65,26.74-40.86,48.85ZM328.9,209.61,345,223.14c9.74-21,23.89-37.08,42.13-47.82,31.65-16.9,57.62-33.42,79.34-50.46l-4.13-3.46a378,378,0,0,1-70.09,43.4L390,165.89,377.47,155.4l.69-2.44a378.06,378.06,0,0,1,30.56-76.57l-4.13-3.46c-13,24.37-24.76,52.8-35.86,86.73C361.27,179.64,347.9,196.38,328.9,209.61Z"/>
      </g>
    </g>
  </g>
</svg>
