<svg xmlns="http://www.w3.org/2000/svg" viewBox="0 0 669.96 204.75">
  <defs>
    <style>
      .cls-1, .cls-2, .cls-4 {
        fill: none;
      }

      .cls-1, .cls-2, .cls-4, .cls-5 {
        stroke: #fff;
        stroke-miterlimit: 10;
      }

      .cls-1, .cls-5 {
        stroke-width: 3px;
      }

      .cls-2 {
        stroke-width: 4px;
      }

      .cls-3, .cls-5 {
        fill: #fff;
      }

      .cls-4 {
        stroke-width: 2px;
      }
    </style>
  </defs>
  <g id="Ebene_2" data-name="Ebene 2">
    <g id="Ebene_1-2" data-name="Ebene 1">
      <g>
        <circle class="cls-1" cx="426.27" cy="69.99" r="12.18"/>
        <g>
          <path class="cls-1" d="M370.37,74.75l51-66.58,65.84,50.46-51,66.57S430.68,98,414.36,85.52,370.37,74.75,370.37,74.75Z"/>
          <line class="cls-1" x1="406.09" y1="28.15" x2="471.92" y2="78.6"/>
          <line class="cls-1" x1="411.19" y1="21.49" x2="477.02" y2="71.94"/>
        </g>
        <circle class="cls-1" cx="347.24" cy="173.1" r="17.69"/>
        <g>
          <path class="cls-1" d="M331.94,193.07l-10.47-8a4.28,4.28,0,0,1-1.35-4.87,7.45,7.45,0,0,0-1-6.85,4.22,4.22,0,0,1,.08-5l16-20.94a4.16,4.16,0,0,1,5-1.27c12.58,5.86,25.85-11.46,25.85-11.46l40.81-53.26"/>
          <path class="cls-1" d="M331.94,193.07l10.47,8a4.28,4.28,0,0,0,5,0,7.44,7.44,0,0,1,6.89-.78A4.21,4.21,0,0,0,359.1,199l16-20.95a4.17,4.17,0,0,0-.09-5.2c-8.92-10.62,4.35-27.93,4.35-27.93l40.82-53.26"/>
        </g>
      </g>
      <g>
        <circle class="cls-2" cx="530.98" cy="139.68" r="24.03"/>
        <circle class="cls-2" cx="530.98" cy="139.68" r="37.83"/>
        <path class="cls-2" d="M619.37,120.1,571.24,84.8c-28.09-20.61-70.74-10.2-91.12,17.57A63.07,63.07,0,0,0,581.83,177s16.67-23.52,10.42-39.27l9.23,6.77Z"/>
        <line class="cls-2" x1="592.25" y1="137.72" x2="553.35" y2="109.18"/>
        <path class="cls-2" d="M601.48,144.49,600.37,146a.93.93,0,0,0,.2,1.31l14.34,10.52a1,1,0,0,0,1.31-.2l20.12-27.43a.94.94,0,0,0-.2-1.32L621.8,118.37a.94.94,0,0,0-1.31.21l-1.12,1.52"/>
        <line class="cls-2" x1="530.98" y1="139.68" x2="516.76" y2="159.05"/>
        <line class="cls-2" x1="530.98" y1="139.68" x2="532.54" y2="163.66"/>
        <line class="cls-2" x1="530.98" y1="139.68" x2="547.59" y2="157.04"/>
        <line class="cls-2" x1="530.98" y1="139.68" x2="554.86" y2="142.3"/>
        <line class="cls-2" x1="530.98" y1="139.68" x2="550.96" y2="126.34"/>
        <line class="cls-2" x1="530.98" y1="139.68" x2="537.7" y2="116.62"/>
        <line class="cls-2" x1="530.98" y1="139.68" x2="521.3" y2="117.69"/>
        <line class="cls-2" x1="530.98" y1="139.68" x2="509.43" y2="129.05"/>
        <line class="cls-2" x1="530.98" y1="139.68" x2="507.64" y2="145.39"/>
        <circle class="cls-3" cx="512.88" cy="164.35" r="3.31"/>
        <circle class="cls-3" cx="524.48" cy="169.58" r="3.31"/>
        <circle class="cls-3" cx="537.2" cy="169.64" r="3.31"/>
        <circle class="cls-3" cx="548.85" cy="164.52" r="3.31"/>
        <circle class="cls-3" cx="557.4" cy="155.1" r="3.31"/>
        <circle class="cls-3" cx="561.39" cy="143.02" r="3.31"/>
        <circle class="cls-3" cx="560.12" cy="130.36" r="3.31"/>
        <circle class="cls-3" cx="553.81" cy="119.31" r="3.31"/>
        <circle class="cls-3" cx="543.55" cy="111.79" r="3.31"/>
        <circle class="cls-3" cx="531.12" cy="109.09" r="3.31"/>
        <circle class="cls-3" cx="518.66" cy="111.67" r="3.31"/>
        <circle class="cls-3" cx="508.33" cy="119.1" r="3.31"/>
        <circle class="cls-3" cx="501.92" cy="130.09" r="3.31"/>
        <circle class="cls-3" cx="500.53" cy="142.74" r="3.31"/>
        <circle class="cls-3" cx="504.41" cy="154.86" r="3.31"/>
      </g>
      <g>
        <path class="cls-1" d="M70.13,25.58a.51.51,0,0,0-.45,0A10.06,10.06,0,0,0,66,29.42a1.74,1.74,0,0,0-.13.51,13.32,13.32,0,0,1-3.5,8.43,1.23,1.23,0,0,0-.28.43l-2.79,6.69L58,46.66a3.42,3.42,0,0,0-1.63.76L53.3,50.25a3,3,0,0,0-.74,1L40.75,79.63,32.48,94.28a6.65,6.65,0,0,0-8.39,4l-5.93.57-2.24,5.37s4.65,4,4.57,6.59l-1.15,2.77-3.29,1.07L9.87,129.5a1.77,1.77,0,0,0,1,2.32L15.94,134,1.55,168.47a.71.71,0,0,0,.39.93l1.25.52,10,4.15,9.94,4.14,1.26.52a.69.69,0,0,0,.92-.38l14.39-34.51L44.77,146a1.77,1.77,0,0,0,2.32-.95l6.18-14.83-1.56-3.09,1.15-2.77c1.81-1.89,7.9-1.38,7.9-1.38L63,117.57,59.23,113a6.64,6.64,0,0,0-3-8.79L60.77,88l11.8-28.32a3,3,0,0,0,.23-1.27l-.16-4.19A3,3,0,0,0,72,52.5L72,50.74l2.79-6.69a1.44,1.44,0,0,0,.1-.5,13.3,13.3,0,0,1,3.53-8.42,1.61,1.61,0,0,0,.26-.46,10.05,10.05,0,0,0,.13-5.27.49.49,0,0,0-.29-.35Z"/>
        <line class="cls-1" x1="32.48" y1="94.28" x2="56.19" y2="104.16"/>
        <line class="cls-1" x1="15.94" y1="133.95" x2="39.65" y2="143.84"/>
        <line class="cls-1" x1="59.33" y1="45.48" x2="71.95" y2="50.74"/>
        <line class="cls-1" x1="19.34" y1="113.61" x2="51.71" y2="127.1"/>
        <path class="cls-4" d="M5.2,184.51s7.9,5.18,11.71,1.71A19.51,19.51,0,0,0,22,177.77"/>
        <polyline class="cls-4" points="9.5 182.79 11.49 183.63 13.24 179.44 16.13 180.64 18.02 176.1"/>
        <polyline class="cls-4" points="9.5 182.79 7.5 181.96 9.25 177.77 6.36 176.57 8.25 172.03"/>
        <line class="cls-4" x1="5.88" y1="158.4" x2="29.58" y2="168.28"/>
        <line class="cls-4" x1="8.22" y1="153.65" x2="31.93" y2="163.53"/>
        <line class="cls-4" x1="10.15" y1="148.72" x2="33.86" y2="158.61"/>
        <line class="cls-4" x1="12.08" y1="143.8" x2="35.79" y2="153.68"/>
        <line class="cls-4" x1="14.43" y1="139.05" x2="38.14" y2="148.93"/>
        <line class="cls-4" x1="3.74" y1="163.23" x2="27.45" y2="173.12"/>
      </g>
      <g>
        <path class="cls-1" d="M342,40.64a24.21,24.21,0,0,0,1.2-3.45c3.13-11.57-2.43-23.14-12.4-25.83S310.14,15.86,307,27.43c-2.68,9.92,1,19.84,8.42,24.16"/>
        <path class="cls-1" d="M325.05,53.77a19.21,19.21,0,0,0,11.58-5.43"/>
        <path class="cls-1" d="M317.92,41.09a19.77,19.77,0,1,0,3.32,27.75A19.76,19.76,0,0,0,317.92,41.09ZM308.55,53a4.61,4.61,0,1,1,6.47-.77A4.61,4.61,0,0,1,308.55,53Z"/>
        <path class="cls-1" d="M325.25,80.16l.36,5.49a1.56,1.56,0,0,0,1.66,1.45l3.21-.21L332.94,124a3.37,3.37,0,0,0,1.77,2.78q4,2.1,7.67-1.73l-.32-4.93-1.81-4.79,1.19-4.48-2.59-6.43,1.72-6.72-1.94-4.27,1.18-7.19,3.21-.21a1.57,1.57,0,0,0,1.45-1.66l-.37-5.48"/>
        <line class="cls-4" x1="333.91" y1="91.23" x2="335.82" y2="120.06"/>
        <path class="cls-1" d="M351.65,46.39l-6.78-5.94-25.46,1.68-.12.14a19.77,19.77,0,0,1,1.95,26.57A19.55,19.55,0,0,1,315.13,74l0,.38,6.78,5.94,25.46-1.68,5.94-6.79Zm-18.57,9.06a4.61,4.61,0,1,1,4.29-4.9A4.61,4.61,0,0,1,333.08,55.45Z"/>
        <path class="cls-1" d="M287.44,64.56,284,68.88a1.56,1.56,0,0,0,.26,2.19l2.53,2-23,29.25a3.39,3.39,0,0,0-.53,3.26q1.59,4.25,6.85,3.84l3.06-3.88,1.86-4.77,3.88-2.54,2.37-6.51,5.78-3.84,1.41-4.48,5.69-4.55,2.52,2a1.57,1.57,0,0,0,2.19-.26l3.4-4.33"/>
        <line class="cls-4" x1="286.47" y1="78.58" x2="268.61" y2="101.29"/>
      </g>
      <g>
        <path class="cls-2" d="M169.86,23.42a81.89,81.89,0,1,0,81.89,81.89A81.89,81.89,0,0,0,169.86,23.42Zm0,155.84a73.95,73.95,0,1,1,73.95-73.95A73.94,73.94,0,0,1,169.86,179.26Z"/>
        <path class="cls-4" d="M169.86,80.91a24.4,24.4,0,1,0,24.4,24.4A24.41,24.41,0,0,0,169.86,80.91Zm0,36.48a12.08,12.08,0,1,1,12.08-12.08A12.07,12.07,0,0,1,169.86,117.39Z"/>
        <path class="cls-4" d="M174.57,80.91a30.58,30.58,0,0,1,0-19.82,159.87,159.87,0,0,0,8.8-28.35h-4a111.57,111.57,0,0,1-7.82,24.09h-3.37a111,111,0,0,1-7.82-24.09h-4a159.8,159.8,0,0,0,8.79,28.35,30.52,30.52,0,0,1,0,19.82Z"/>
        <path class="cls-4" d="M157.79,83.59a30.53,30.53,0,0,1-12.74-15.18A160.09,160.09,0,0,0,133.57,41l-3.07,2.57A111.7,111.7,0,0,1,140,67.09l-2.58,2.16a110.7,110.7,0,0,1-21.47-13.42l-3.07,2.57a160.49,160.49,0,0,0,25,16.07,30.48,30.48,0,0,1,12.74,15.18Z"/>
        <path class="cls-4" d="M146.65,96.44A30.53,30.53,0,0,1,127.14,93a160.91,160.91,0,0,0-26.4-13.58l-.69,3.94a111,111,0,0,1,22.36,11.89l-.59,3.31a111.19,111.19,0,0,1-25.07,3.52l-.7,3.94a159.77,159.77,0,0,0,29.45-3.74A30.6,30.6,0,0,1,145,105.71Z"/>
        <path class="cls-4" d="M146.38,113.43a30.52,30.52,0,0,1-17.16,9.91,160.61,160.61,0,0,0-29,6.56l2,3.47A110.93,110.93,0,0,1,127,128.1l1.69,2.91a110.94,110.94,0,0,1-17,18.81l2,3.47a159.9,159.9,0,0,0,20.16-21.79,30.54,30.54,0,0,1,17.16-9.91Z"/>
        <path class="cls-4" d="M157.09,126.63a30.52,30.52,0,0,1-6.78,18.62,160.48,160.48,0,0,0-18,23.63l3.76,1.37A111.41,111.41,0,0,1,151.7,150.3l3.16,1.15a111,111,0,0,1-.89,25.3l3.77,1.37a160.25,160.25,0,0,0,1.43-29.65,30.48,30.48,0,0,1,6.77-18.62Z"/>
        <path class="cls-4" d="M173.78,129.85a30.49,30.49,0,0,1,6.78,18.62A160.25,160.25,0,0,0,182,178.12l3.76-1.37a111,111,0,0,1-.88-25.3L188,150.3a110.9,110.9,0,0,1,15.58,19.95l3.77-1.37a159.88,159.88,0,0,0-18-23.63,30.58,30.58,0,0,1-6.78-18.62Z"/>
        <path class="cls-4" d="M188.64,121.59a30.57,30.57,0,0,1,17.16,9.91A159.9,159.9,0,0,0,226,153.29l2-3.47A110.94,110.94,0,0,1,211,131l1.68-2.91a110.9,110.9,0,0,1,24.77,5.27l2-3.47a160.3,160.3,0,0,0-29-6.56,30.52,30.52,0,0,1-17.16-9.91Z"/>
        <path class="cls-4" d="M194.71,105.71a30.59,30.59,0,0,1,19.52-3.44A159.56,159.56,0,0,0,243.68,106l-.7-3.94a111.28,111.28,0,0,1-25.08-3.52l-.58-3.31a111,111,0,0,1,22.36-11.89l-.7-3.94A160.43,160.43,0,0,0,212.59,93a30.55,30.55,0,0,1-19.52,3.45Z"/>
        <path class="cls-4" d="M189.15,89.65a30.58,30.58,0,0,1,12.74-15.18,160.61,160.61,0,0,0,25-16.07l-3.07-2.57a110.7,110.7,0,0,1-21.47,13.42l-2.58-2.16a111.17,111.17,0,0,1,9.49-23.48L206.16,41a160.09,160.09,0,0,0-11.48,27.37,30.53,30.53,0,0,1-12.74,15.18Z"/>
      </g>
      <g>
        <rect class="cls-1" x="563.86" y="27.94" width="81.1" height="42.77" rx="7.82" transform="translate(7.03 -55.01) rotate(5.24)"/>
        <rect class="cls-1" x="645.59" y="40.45" width="19.7" height="8.77" transform="translate(6.84 -59.69) rotate(5.24)"/>
        <rect class="cls-1" x="643.92" y="58.65" width="19.7" height="8.77" transform="translate(8.49 -59.46) rotate(5.24)"/>
        <path class="cls-1" d="M532.5,3.07,516.8,1.63,516,10l12.17,1.12A3.54,3.54,0,0,1,531.41,15l-2.13,23.24-.45,4.85A3.55,3.55,0,0,0,532,46.91l31.61,2.9.77-8.37L541.18,39.3A3.54,3.54,0,0,1,538,35.45l2.58-28.08a3.54,3.54,0,0,0-3.21-3.85l-4.84-.45"/>
        <ellipse class="cls-5" cx="664.76" cy="64.04" rx="4.38" ry="2" transform="translate(540.26 720.17) rotate(-84.76)"/>
        <ellipse class="cls-5" cx="666.43" cy="45.84" rx="4.38" ry="2" transform="translate(559.9 705.29) rotate(-84.76)"/>
      </g>
    </g>
  </g>
</svg>
