<svg id="Ebene_1" data-name="Ebene 1" xmlns="http://www.w3.org/2000/svg" viewBox="0 0 1280 220.77">
  <defs>
    <style>
      .cls-1, .cls-2, .cls-4 {
        fill: none;
      }

      .cls-1, .cls-2, .cls-4, .cls-5 {
        stroke: #fff;
        stroke-miterlimit: 10;
      }

      .cls-1, .cls-5 {
        stroke-width: 3px;
      }

      .cls-2 {
        stroke-width: 4px;
      }

      .cls-3, .cls-5 {
        fill: #fff;
      }

      .cls-4 {
        stroke-width: 2px;
      }
    </style>
  </defs>
  <g>
    <circle class="cls-1" cx="448.29" cy="75.78" r="11.28"/>
    <g>
      <path class="cls-1" d="M397.05,84.44l42-65.35,64.63,41.55-42,65.35s-7.17-24.66-23.19-35S397.05,84.44,397.05,84.44Z"/>
      <line class="cls-1" x1="426.46" y1="38.7" x2="491.09" y2="80.25"/>
      <line class="cls-1" x1="430.66" y1="32.16" x2="495.29" y2="73.71"/>
    </g>
    <circle class="cls-1" cx="383.21" cy="177" r="16.38"/>
    <g>
      <path class="cls-1" d="M370.6,196.61,360.33,190a4,4,0,0,1-1.62-4.39,6.88,6.88,0,0,0-1.48-6.24,3.91,3.91,0,0,1-.31-4.58l13.22-20.55a3.85,3.85,0,0,1,4.56-1.56c12.05,4.44,23-12.55,23-12.55l33.61-52.29"/>
      <path class="cls-1" d="M370.6,196.61l10.28,6.61a4,4,0,0,0,4.66-.36,6.91,6.91,0,0,1,6.3-1.24,3.9,3.9,0,0,0,4.29-1.62l13.22-20.55a3.87,3.87,0,0,0-.48-4.8c-9.05-9.12,1.88-26.12,1.88-26.12l33.61-52.28"/>
    </g>
  </g>
  <g>
    <circle class="cls-1" cx="1224.76" cy="75.87" r="9.95"/>
    <g>
      <path class="cls-1" d="M1197.57,112.78l-13.42-67.22,66.47-13.27L1264,99.5s-19.67-11.24-36.14-8S1197.57,112.78,1197.57,112.78Z"/>
      <line class="cls-1" x1="1188.18" y1="65.73" x2="1254.65" y2="52.45"/>
      <line class="cls-1" x1="1186.83" y1="59.01" x2="1253.3" y2="45.73"/>
    </g>
    <circle class="cls-1" cx="1245.56" cy="179.97" r="14.45"/>
    <g>
      <path class="cls-1" d="M1249.58,200.14,1239,202.25a3.48,3.48,0,0,1-3.71-1.8,6.11,6.11,0,0,0-4.77-3,3.43,3.43,0,0,1-3-2.71l-4.23-21.14a3.4,3.4,0,0,1,1.94-3.78c10.37-4.58,6.88-22.06,6.88-22.06l-10.74-53.77"/>
      <path class="cls-1" d="M1249.58,200.14l10.57-2.11a3.51,3.51,0,0,0,2.75-3.09,6.07,6.07,0,0,1,3.23-4.65,3.46,3.46,0,0,0,1.73-3.65l-4.23-21.15a3.38,3.38,0,0,0-3.24-2.74c-11.33-.25-14.83-17.73-14.83-17.73l-10.74-53.77"/>
    </g>
  </g>
  <g>
    <circle class="cls-1" cx="822.63" cy="160.52" r="11.28"/>
    <g>
      <path class="cls-1" d="M850.72,204.24l-76.61-13L787,115.52l76.6,13s-19.86,16.28-23,35.06S850.72,204.24,850.72,204.24Z"/>
      <line class="cls-1" x1="797.09" y1="195.16" x2="809.93" y2="119.41"/>
      <line class="cls-1" x1="789.43" y1="193.86" x2="802.27" y2="118.11"/>
    </g>
    <circle class="cls-1" cx="941.28" cy="180.62" r="16.38"/>
    <g>
      <path class="cls-1" d="M964.26,184.52l-2,12a4,4,0,0,1-3.41,3.21,6.92,6.92,0,0,0-5.16,3.82,3.91,3.91,0,0,1-4.08,2.08l-24.1-4.08a3.87,3.87,0,0,1-3.22-3.59c-.65-12.83-20.57-16.21-20.57-16.21L840.4,171.41"/>
      <path class="cls-1" d="M964.26,184.52l2-12.05a4,4,0,0,0-2.16-4.15,6.91,6.91,0,0,1-3.62-5.3,3.89,3.89,0,0,0-3.17-3.31l-24.09-4.09A3.86,3.86,0,0,0,929,158c-4.84,11.9-24.77,8.52-24.77,8.52L843,156.09"/>
    </g>
  </g>
  <g>
    <circle class="cls-2" cx="544.23" cy="149.23" r="24.03"/>
    <circle class="cls-2" cx="544.23" cy="149.23" r="37.83"/>
    <path class="cls-2" d="M632.63,129.66,584.5,94.35c-28.09-20.6-70.74-10.2-91.12,17.58a63.07,63.07,0,0,0,101.71,74.61s16.66-23.51,10.42-39.27l9.23,6.77Z"/>
    <line class="cls-2" x1="605.51" y1="147.27" x2="566.61" y2="118.73"/>
    <path class="cls-2" d="M614.74,154l-1.11,1.52a.93.93,0,0,0,.2,1.31l14.34,10.52a.93.93,0,0,0,1.31-.2l20.12-27.43a.94.94,0,0,0-.2-1.32l-14.34-10.52a.94.94,0,0,0-1.31.21l-1.12,1.53"/>
    <line class="cls-2" x1="544.23" y1="149.23" x2="530.02" y2="168.61"/>
    <line class="cls-2" x1="544.23" y1="149.23" x2="545.8" y2="173.21"/>
    <line class="cls-2" x1="544.23" y1="149.23" x2="560.84" y2="166.59"/>
    <line class="cls-2" x1="544.23" y1="149.23" x2="568.12" y2="151.85"/>
    <line class="cls-2" x1="544.23" y1="149.23" x2="564.22" y2="135.89"/>
    <line class="cls-2" x1="544.23" y1="149.23" x2="550.96" y2="126.17"/>
    <line class="cls-2" x1="544.23" y1="149.23" x2="534.56" y2="127.24"/>
    <line class="cls-2" x1="544.23" y1="149.23" x2="522.69" y2="138.6"/>
    <line class="cls-2" x1="544.23" y1="149.23" x2="520.9" y2="154.94"/>
    <circle class="cls-3" cx="526.14" cy="173.9" r="3.31"/>
    <circle class="cls-3" cx="537.74" cy="179.13" r="3.31"/>
    <circle class="cls-3" cx="550.46" cy="179.19" r="3.31"/>
    <circle class="cls-3" cx="562.1" cy="174.07" r="3.31"/>
    <circle class="cls-3" cx="570.66" cy="164.65" r="3.31"/>
    <circle class="cls-3" cx="574.65" cy="152.57" r="3.31"/>
    <circle class="cls-3" cx="573.38" cy="139.91" r="3.31"/>
    <circle class="cls-3" cx="567.07" cy="128.87" r="3.31"/>
    <circle class="cls-3" cx="556.81" cy="121.34" r="3.31"/>
    <circle class="cls-3" cx="544.38" cy="118.64" r="3.31"/>
    <circle class="cls-3" cx="531.92" cy="121.22" r="3.31"/>
    <circle class="cls-3" cx="521.59" cy="128.66" r="3.31"/>
    <circle class="cls-3" cx="515.18" cy="139.64" r="3.31"/>
    <circle class="cls-3" cx="513.79" cy="152.29" r="3.31"/>
    <circle class="cls-3" cx="517.67" cy="164.41" r="3.31"/>
  </g>
  <g>
    <circle class="cls-2" cx="970.83" cy="84.48" r="21.57"/>
    <circle class="cls-2" cx="970.83" cy="84.48" r="33.96"/>
    <path class="cls-2" d="M1016.26,17.09,963.1,23.87c-31,3.95-52.35,37.1-48.44,67.77A56.62,56.62,0,0,0,1027,77.33s-3.69-25.61-17.5-32l10.2-1.3Z"/>
    <line class="cls-2" x1="1009.49" y1="45.32" x2="966.53" y2="50.8"/>
    <path class="cls-2" d="M1019.69,44l.21,1.68a.84.84,0,0,0,.94.73l15.84-2a.84.84,0,0,0,.73-.94l-3.86-30.3a.84.84,0,0,0-.94-.73l-15.84,2a.84.84,0,0,0-.73.94l.22,1.69"/>
    <line class="cls-2" x1="970.83" y1="84.48" x2="973.55" y2="105.88"/>
    <line class="cls-2" x1="970.83" y1="84.48" x2="986.67" y2="99.12"/>
    <line class="cls-2" x1="970.83" y1="84.48" x2="992.37" y2="85.51"/>
    <line class="cls-2" x1="970.83" y1="84.48" x2="987.99" y2="71.42"/>
    <line class="cls-2" x1="970.83" y1="84.48" x2="975.58" y2="63.44"/>
    <line class="cls-2" x1="970.83" y1="84.48" x2="960.95" y2="65.31"/>
    <line class="cls-2" x1="970.83" y1="84.48" x2="950.93" y2="76.15"/>
    <line class="cls-2" x1="970.83" y1="84.48" x2="950.23" y2="90.88"/>
    <line class="cls-2" x1="970.83" y1="84.48" x2="959.16" y2="102.62"/>
    <circle class="cls-3" cx="974.3" cy="111.73" r="2.97"/>
    <circle class="cls-3" cx="985.08" cy="107.96" r="2.97"/>
    <circle class="cls-3" cx="993.4" cy="100.13" r="2.97"/>
    <circle class="cls-3" cx="997.81" cy="89.6" r="2.97"/>
    <circle class="cls-3" cx="997.56" cy="78.18" r="2.97"/>
    <circle class="cls-3" cx="992.69" cy="67.85" r="2.97"/>
    <circle class="cls-3" cx="984.03" cy="60.4" r="2.97"/>
    <circle class="cls-3" cx="973.09" cy="57.11" r="2.97"/>
    <circle class="cls-3" cx="961.77" cy="58.55" r="2.97"/>
    <circle class="cls-3" cx="952" cy="64.48" r="2.97"/>
    <circle class="cls-3" cx="945.49" cy="73.87" r="2.97"/>
    <circle class="cls-3" cx="943.37" cy="85.09" r="2.97"/>
    <circle class="cls-3" cx="945.99" cy="96.2" r="2.97"/>
    <circle class="cls-3" cx="952.9" cy="105.29" r="2.97"/>
    <circle class="cls-3" cx="962.92" cy="110.78" r="2.97"/>
  </g>
  <g>
    <path class="cls-1" d="M230,31.3a.51.51,0,0,0,0,.45,10,10,0,0,0,3.38,4,1.63,1.63,0,0,0,.49.2,13.25,13.25,0,0,1,8,4.41,1.34,1.34,0,0,0,.39.32l6.34,3.52,1,1.42a3.46,3.46,0,0,0,.58,1.71l2.47,3.39a2.91,2.91,0,0,0,1,.85l26.84,14.87,13.65,9.85a6.64,6.64,0,0,0,3.07,8.78l-.08,6,5.09,2.82s4.46-4.18,7.05-3.82l2.63,1.46.69,3.39,14.05,7.78A1.77,1.77,0,0,0,329,102l2.69-4.85,32.71,18.12a.7.7,0,0,0,1-.28l.66-1.18,5.22-9.43L376.51,95l.65-1.18a.71.71,0,0,0-.27-1L344.18,74.7l2.69-4.85a1.78,1.78,0,0,0-.69-2.41l-14.05-7.78-3.25,1.2-2.63-1.45c-1.68-2-.5-8-.5-8l-5.09-2.82-5,3.24a6.64,6.64,0,0,0-9.07,2L291,47.52,264.15,32.65a3,3,0,0,0-1.23-.37L258.73,32a3,3,0,0,0-1.75.41l-1.75-.11-6.34-3.52a1.66,1.66,0,0,0-.49-.16,13.24,13.24,0,0,1-8-4.43,1.66,1.66,0,0,0-.43-.32,10,10,0,0,0-5.22-.71.51.51,0,0,0-.38.25Z"/>
    <line class="cls-1" x1="294.13" y1="76.34" x2="306.58" y2="53.87"/>
    <line class="cls-1" x1="331.73" y1="97.17" x2="344.18" y2="74.7"/>
    <line class="cls-1" x1="248.6" y1="44.25" x2="255.23" y2="32.29"/>
    <line class="cls-1" x1="311.89" y1="91.54" x2="328.88" y2="60.86"/>
    <path class="cls-4" d="M380.78,113.45s6-7.29,3-11.46A19.51,19.51,0,0,0,376,96"/>
    <polyline class="cls-4" points="379.55 108.98 380.6 107.09 376.63 104.89 378.15 102.15 373.85 99.77"/>
    <polyline class="cls-4" points="379.55 108.98 378.51 110.87 374.54 108.67 373.02 111.41 368.72 109.03"/>
    <line class="cls-4" x1="354.91" y1="109.88" x2="367.35" y2="87.41"/>
    <line class="cls-4" x1="350.45" y1="107.02" x2="362.89" y2="84.56"/>
    <line class="cls-4" x1="345.77" y1="104.56" x2="358.21" y2="82.09"/>
    <line class="cls-4" x1="341.09" y1="102.1" x2="353.53" y2="79.63"/>
    <line class="cls-4" x1="336.63" y1="99.24" x2="349.07" y2="76.77"/>
    <line class="cls-4" x1="359.48" y1="112.54" x2="371.92" y2="90.07"/>
  </g>
  <g>
    <path class="cls-1" d="M774.27,56.89a.52.52,0,0,0-.45-.07,9.93,9.93,0,0,0-4.47,2.78,1.64,1.64,0,0,0-.27.46,13.22,13.22,0,0,1-5.47,7.3,1.54,1.54,0,0,0-.37.35l-4.36,5.79-1.56.83a3.47,3.47,0,0,0-1.77.33l-3.69,2a2.93,2.93,0,0,0-1,.84L732.44,102l-11.63,12.15a6.66,6.66,0,0,0-9.13,1.83l-5.89-.91-3.5,4.65s3.53,5,2.81,7.52l-1.8,2.4-3.46.22-9.65,12.84a1.78,1.78,0,0,0,.35,2.48l4.44,3.33-22.47,29.89a.72.72,0,0,0,.14,1l1.09.81,8.61,6.48,8.62,6.47,1.08.82a.71.71,0,0,0,1-.14L715.51,164l4.44,3.34a1.77,1.77,0,0,0,2.48-.35l9.65-12.84-.75-3.38,1.81-2.4c2.21-1.39,8,.61,8,.61l3.5-4.66-2.51-5.4a6.65,6.65,0,0,0-.78-9.28L749.78,115l18.44-24.53a3,3,0,0,0,.53-1.18l.87-4.1a3,3,0,0,0-.17-1.79l.36-1.72,4.35-5.8a1.28,1.28,0,0,0,.23-.45,13.28,13.28,0,0,1,5.49-7.29,1.71,1.71,0,0,0,.38-.38,10,10,0,0,0,1.42-5.07.49.49,0,0,0-.19-.41Z"/>
    <line class="cls-1" x1="720.81" y1="114.16" x2="741.34" y2="129.59"/>
    <line class="cls-1" x1="694.98" y1="148.52" x2="715.51" y2="163.95"/>
    <line class="cls-1" x1="758.88" y1="73.5" x2="769.81" y2="81.72"/>
    <line class="cls-1" x1="703.3" y1="129.65" x2="731.33" y2="150.72"/>
    <path class="cls-4" d="M672.08,194.85s6.38,7,10.93,4.55a19.43,19.43,0,0,0,7-6.92"/>
    <polyline class="cls-4" points="676.67 194.25 678.4 195.55 681.13 191.92 683.63 193.81 686.58 189.88"/>
    <polyline class="cls-4" points="676.67 194.25 674.95 192.96 677.67 189.33 675.17 187.45 678.12 183.52"/>
    <line class="cls-4" x1="679.19" y1="169.72" x2="699.72" y2="185.15"/>
    <line class="cls-4" x1="682.63" y1="165.7" x2="703.17" y2="181.13"/>
    <line class="cls-4" x1="685.72" y1="161.4" x2="706.25" y2="176.83"/>
    <line class="cls-4" x1="688.81" y1="157.11" x2="709.34" y2="172.54"/>
    <line class="cls-4" x1="692.25" y1="153.09" x2="712.79" y2="168.52"/>
    <line class="cls-4" x1="675.92" y1="173.88" x2="696.45" y2="189.31"/>
  </g>
  <g>
    <path class="cls-1" d="M248.8,99.41a27.12,27.12,0,0,0-1-3.93c-4.32-12.6-16.62-19.79-27.49-16.07s-16.18,17-11.86,29.55c3.7,10.8,13.27,17.63,22.77,17"/>
    <path class="cls-1" d="M241.41,122a21.35,21.35,0,0,0,7.28-12.21"/>
    <path class="cls-1" d="M227,114.76a22,22,0,1,0,20.31,23.5A22,22,0,0,0,227,114.76Zm-1.22,16.8a5.12,5.12,0,1,1,5.48-4.73A5.12,5.12,0,0,1,225.73,131.56Z"/>
    <path class="cls-1" d="M258,146.2l3.74,4.82a1.74,1.74,0,0,0,2.43.31l2.82-2.19,25.35,32.67a3.76,3.76,0,0,0,3.37,1.46q5-.57,6-6.35l-3.37-4.34-4.64-3.29L292,164.42l-6.38-4.31L283,152.85l-4.45-2.73-3.38-7.35,2.82-2.19a1.73,1.73,0,0,0,.31-2.43l-3.75-4.83"/>
    <line class="cls-4" x1="272.85" y1="151.01" x2="292.53" y2="176.37"/>
    <path class="cls-1" d="M261.32,98.67l-9.95-1.25L229,114.8l0,.2a22,22,0,0,1,15.89,31.8l.26.33,9.94,1.26L277.44,131l1.25-9.94Zm-11.48,19.89a5.12,5.12,0,1,1,.91-7.18A5.11,5.11,0,0,1,249.84,118.56Z"/>
    <path class="cls-1" d="M213.47,155.33l-.44,6.1a1.73,1.73,0,0,0,1.6,1.85l3.56.26-3,41.25a3.77,3.77,0,0,0,1.53,3.33q4.11,2.92,8.7-.72l.4-5.48-1.25-5.55,2-4.74-1.86-7.48,2.93-7.13-1.48-5,2.4-7.73,3.56.26A1.73,1.73,0,0,0,234,163l.44-6.09"/>
    <line class="cls-4" x1="221.3" y1="168.85" x2="218.96" y2="200.86"/>
  </g>
  <g>
    <path class="cls-1" d="M1090,115.43a26,26,0,0,0,1.62-3.45c4.47-11.66-.06-24.23-10.12-28.09s-21.83,2.48-26.3,14.14c-3.83,10-1,20.67,6.16,25.94"/>
    <path class="cls-1" d="M1071.14,127.25a20,20,0,0,0,12.58-4.41"/>
    <path class="cls-1" d="M1065.09,113.35a20.59,20.59,0,1,0,.49,29.11A20.58,20.58,0,0,0,1065.09,113.35Zm-11,11.35a4.8,4.8,0,1,1,6.79-.12A4.81,4.81,0,0,1,1054.11,124.7Z"/>
    <path class="cls-1" d="M1068.54,154.62l-.21,5.73a1.62,1.62,0,0,0,1.56,1.68l3.35.12-1.39,38.75a3.49,3.49,0,0,0,1.54,3.07q4,2.61,8.13-1l.19-5.15-1.37-5.15,1.72-4.52-2-6.94,2.5-6.78-1.56-4.63,2-7.33,3.34.12a1.62,1.62,0,0,0,1.68-1.56l.21-5.73"/>
    <line class="cls-4" x1="1076.34" y1="167.02" x2="1075.25" y2="197.09"/>
    <path class="cls-1" d="M1099.49,122.42l-6.4-6.88-26.56-1-.14.13a20.6,20.6,0,0,1-7.68,32.43l0,.4,6.41,6.88,26.56.95,6.88-6.4Zm-20.21,7.42a4.8,4.8,0,1,1,5-4.63A4.81,4.81,0,0,1,1079.28,129.84Z"/>
    <path class="cls-1" d="M1031,134.44l-4,4.12a1.62,1.62,0,0,0,0,2.29l2.41,2.33-27,27.87a3.55,3.55,0,0,0-.91,3.32c.8,3,3,4.62,6.7,4.72l3.58-3.71,2.43-4.74,4.3-2.22,3.15-6.5,6.39-3.36,1.94-4.49,6.38-4.12,2.41,2.33a1.62,1.62,0,0,0,2.29,0l4-4.12"/>
    <line class="cls-4" x1="1028.51" y1="148.87" x2="1007.59" y2="170.5"/>
  </g>
  <g>
    <path class="cls-2" d="M105.15,20.33A81.89,81.89,0,1,0,187,102.22,81.89,81.89,0,0,0,105.15,20.33Zm0,155.84a73.95,73.95,0,1,1,73.95-73.95A74,74,0,0,1,105.15,176.17Z"/>
    <path class="cls-4" d="M105.15,77.82a24.4,24.4,0,1,0,24.4,24.4A24.41,24.41,0,0,0,105.15,77.82Zm0,36.48a12.08,12.08,0,1,1,12.08-12.08A12.08,12.08,0,0,1,105.15,114.3Z"/>
    <path class="cls-4" d="M109.86,77.82a30.55,30.55,0,0,1,0-19.81,160.22,160.22,0,0,0,8.8-28.36h-4a110.85,110.85,0,0,1-7.82,24.09h-3.36a110.85,110.85,0,0,1-7.82-24.09h-4A160.22,160.22,0,0,0,100.44,58a30.55,30.55,0,0,1,0,19.81Z"/>
    <path class="cls-4" d="M93.07,80.5A30.56,30.56,0,0,1,80.34,65.32,160.44,160.44,0,0,0,68.85,38l-3.07,2.57A110.64,110.64,0,0,1,75.27,64L72.7,66.16A111.08,111.08,0,0,1,51.22,52.74l-3.06,2.58a160,160,0,0,0,25,16.06A30.57,30.57,0,0,1,85.86,86.56Z"/>
    <path class="cls-4" d="M81.94,93.35a30.62,30.62,0,0,1-19.52-3.44A159.74,159.74,0,0,0,36,76.32l-.7,3.94A111.07,111.07,0,0,1,57.7,92.15l-.59,3.31A111.2,111.2,0,0,1,32,99l-.69,3.94a159.77,159.77,0,0,0,29.45-3.74,30.56,30.56,0,0,1,19.51,3.44Z"/>
    <path class="cls-4" d="M81.67,110.34a30.55,30.55,0,0,1-17.17,9.91,160.5,160.5,0,0,0-28.95,6.56l2,3.47A111,111,0,0,1,62.32,125L64,127.92a110.53,110.53,0,0,1-16.94,18.82l2,3.47a160,160,0,0,0,20.15-21.8,30.57,30.57,0,0,1,17.16-9.91Z"/>
    <path class="cls-4" d="M92.38,123.54a30.54,30.54,0,0,1-6.78,18.62,159.33,159.33,0,0,0-18,23.64l3.76,1.37a110.68,110.68,0,0,1,15.59-20l3.16,1.15a111.06,111.06,0,0,1-.89,25.31L93,175a159.54,159.54,0,0,0,1.43-29.66,30.6,30.6,0,0,1,6.78-18.62Z"/>
    <path class="cls-4" d="M109.07,126.76a30.6,30.6,0,0,1,6.78,18.62A159.54,159.54,0,0,0,117.28,175l3.76-1.37a111.06,111.06,0,0,1-.89-25.31l3.16-1.15a110.68,110.68,0,0,1,15.59,20l3.76-1.37a159.33,159.33,0,0,0-18-23.64,30.54,30.54,0,0,1-6.78-18.62Z"/>
    <path class="cls-4" d="M123.93,118.5a30.57,30.57,0,0,1,17.16,9.91,160,160,0,0,0,20.15,21.8l2-3.47a111,111,0,0,1-16.95-18.82L148,125a111,111,0,0,1,24.77,5.27l2-3.47a160.5,160.5,0,0,0-28.95-6.56,30.52,30.52,0,0,1-17.16-9.91Z"/>
    <path class="cls-4" d="M130,102.62a30.56,30.56,0,0,1,19.51-3.44A159.77,159.77,0,0,0,179,102.92L178.27,99a111.2,111.2,0,0,1-25.08-3.52l-.58-3.31A110.73,110.73,0,0,1,175,80.26l-.7-3.94a159.74,159.74,0,0,0-26.39,13.59,30.61,30.61,0,0,1-19.52,3.44Z"/>
    <path class="cls-4" d="M124.44,86.56a30.57,30.57,0,0,1,12.74-15.18,160,160,0,0,0,25-16.06l-3.06-2.58A111.08,111.08,0,0,1,137.6,66.16L135,64a110.64,110.64,0,0,1,9.49-23.48L141.45,38A160.44,160.44,0,0,0,130,65.32,30.56,30.56,0,0,1,117.23,80.5Z"/>
  </g>
  <g>
    <path class="cls-3" d="M842.57,105a47.85,47.85,0,1,1,47.85-47.85A47.9,47.9,0,0,1,842.57,105Zm0-93.41a45.57,45.57,0,1,0,45.57,45.56A45.61,45.61,0,0,0,842.57,11.55Zm0,88.88a43.32,43.32,0,1,1,43.32-43.32A43.37,43.37,0,0,1,842.57,100.43Zm0-84.35a41,41,0,1,0,41,41A41.08,41.08,0,0,0,842.57,16.08Z"/>
    <path class="cls-3" d="M842.57,71.6a14.49,14.49,0,1,1,14.49-14.49A14.51,14.51,0,0,1,842.57,71.6Zm0-27.83a13.35,13.35,0,1,0,13.35,13.34A13.35,13.35,0,0,0,842.57,43.77Zm0,20.8A7.46,7.46,0,1,1,850,57.11,7.47,7.47,0,0,1,842.57,64.57Zm0-13.77a6.32,6.32,0,1,0,6.32,6.31A6.32,6.32,0,0,0,842.57,50.8Z"/>
    <path class="cls-3" d="M846,43.77h-6.92l.23-.74a16.76,16.76,0,0,0,0-11,89.79,89.79,0,0,1-5-16.25l-.14-.68h3.45l.09.46A63,63,0,0,0,842,28.89h1.18a62.41,62.41,0,0,0,4.27-13.28l.09-.46H851l-.13.68a91.44,91.44,0,0,1-5.05,16.28,16.73,16.73,0,0,0,0,10.92Zm-5.38-1.14h3.84a17.9,17.9,0,0,1,.23-10.93,91.72,91.72,0,0,0,4.86-15.41h-1.12a65.17,65.17,0,0,1-4.41,13.41l-.15.33h-2.66l-.15-.33a64.34,64.34,0,0,1-4.4-13.41h-1.13a91.79,91.79,0,0,0,4.85,15.39A17.89,17.89,0,0,1,840.65,42.63Z"/>
    <path class="cls-3" d="M831.34,49.12l-.3-.72A16.74,16.74,0,0,0,824,40a90.48,90.48,0,0,1-14.3-9.21l-.54-.43,2.64-2.22.36.3A63.16,63.16,0,0,0,824,35.87l.9-.76a62.52,62.52,0,0,0-5.26-12.91l-.23-.41L822,19.57l.34.61A91.53,91.53,0,0,1,829,35.89a16.78,16.78,0,0,0,7,8.36l.66.41ZM811,30.35A92.1,92.1,0,0,0,824.57,39a17.89,17.89,0,0,1,7.22,8.23l2.94-2.47a17.87,17.87,0,0,1-6.85-8.51,91.26,91.26,0,0,0-6.18-14.93l-.86.72a63.77,63.77,0,0,1,5.24,13.1l.1.35-2,1.71-.34-.16a65.34,65.34,0,0,1-12-7.43Z"/>
    <path class="cls-3" d="M828.83,58.21l-.69-.36a16.77,16.77,0,0,0-10.78-1.91,90.82,90.82,0,0,1-16.88,2.14l-.69,0,.6-3.4h.47a62.28,62.28,0,0,0,13.81-1.9l.21-1.16a63,63,0,0,0-12.34-6.51l-.43-.17.6-3.39.64.25A91,91,0,0,1,818.5,49.6a16.8,16.8,0,0,0,10.76,1.89l.77-.1Zm-27.48-2.39-.19,1.11a91.62,91.62,0,0,0,16-2.11A17.91,17.91,0,0,1,828,56.49l.67-3.79a17.77,17.77,0,0,1-10.72-2.12,93.83,93.83,0,0,0-14.33-7.46l-.2,1.11a64,64,0,0,1,12.44,6.67l.3.2-.46,2.62-.36.09A64.25,64.25,0,0,1,801.35,55.82Z"/>
    <path class="cls-3" d="M810.43,85.37l-1.72-3,.35-.31a62.53,62.53,0,0,0,9.36-10.33l-.59-1a63,63,0,0,0-13.63,2.94l-.44.15-1.73-3,.66-.22a90.66,90.66,0,0,1,16.62-3.77,16.74,16.74,0,0,0,9.45-5.47l.52-.57,3.46,6L832,67a16.75,16.75,0,0,0-9.48,5.47A90.87,90.87,0,0,1,811,84.91Zm-.27-2.75.56,1a91.64,91.64,0,0,0,10.9-11.89A17.9,17.9,0,0,1,831,66l-1.93-3.33A17.82,17.82,0,0,1,819.49,68a90.94,90.94,0,0,0-15.77,3.5l.56,1a64,64,0,0,1,13.81-2.89l.36,0,1.33,2.29-.21.3A64.17,64.17,0,0,1,810.16,82.62Z"/>
    <path class="cls-3" d="M836.11,99.42l-3.24-1.18.07-.47a62.59,62.59,0,0,0,.53-13.93l-1.11-.41a63.21,63.21,0,0,0-8.55,11l-.24.4-3.24-1.18.36-.59A90.06,90.06,0,0,1,831,79.51a16.76,16.76,0,0,0,3.72-10.26l0-.78,6.51,2.37-.47.62A16.75,16.75,0,0,0,837,81.74a90.48,90.48,0,0,1-.82,17Zm-2-1.94,1.05.39a91.87,91.87,0,0,0,.71-16.12,17.94,17.94,0,0,1,3.52-10.37l-3.61-1.31a17.85,17.85,0,0,1-3.95,10.19A91,91,0,0,0,822,93.07l1.05.39a64,64,0,0,1,8.72-11.09l.26-.26,2.5.91,0,.36A64.2,64.2,0,0,1,834.14,97.48Z"/>
    <path class="cls-3" d="M849,99.42l-.11-.69a92.35,92.35,0,0,1-.82-17,16.73,16.73,0,0,0-3.75-10.25l-.47-.62,6.51-2.37,0,.78a16.76,16.76,0,0,0,3.74,10.28,91.39,91.39,0,0,1,10.3,13.55l.35.59-3.23,1.18-.25-.4a63.21,63.21,0,0,0-8.55-11l-1.11.41a62.59,62.59,0,0,0,.53,13.93l.07.47Zm-3.31-28a17.86,17.86,0,0,1,3.52,10.35A92,92,0,0,0,850,97.87l1-.39a64.2,64.2,0,0,1-.44-14.1l0-.36,2.49-.91.26.26a64,64,0,0,1,8.72,11.09l1.06-.39a92.6,92.6,0,0,0-9.82-12.8,17.86,17.86,0,0,1-4-10.2Z"/>
    <path class="cls-3" d="M874.71,85.37l-.52-.46A91.23,91.23,0,0,1,862.62,72.4,16.78,16.78,0,0,0,853.15,67l-.75-.17,3.46-6,.53.57a16.73,16.73,0,0,0,9.47,5.48,90.1,90.1,0,0,1,16.59,3.76l.66.22-1.72,3-.45-.15a63,63,0,0,0-13.63-2.94l-.59,1a63,63,0,0,0,9.36,10.33l.35.31ZM854.16,66a17.83,17.83,0,0,1,9.34,5.66,92.05,92.05,0,0,0,10.92,11.91l.56-1a63.67,63.67,0,0,1-9.4-10.52l-.22-.3,1.33-2.29.36,0a63.92,63.92,0,0,1,13.81,2.89l.57-1A91.45,91.45,0,0,0,865.67,68a17.84,17.84,0,0,1-9.59-5.27Z"/>
    <path class="cls-3" d="M856.32,58.21l-1.21-6.82.77.1a16.81,16.81,0,0,0,10.78-1.9,90.75,90.75,0,0,1,15.13-7.78l.65-.25L883,45l-.43.17a63.24,63.24,0,0,0-12.34,6.51l.21,1.16a62.28,62.28,0,0,0,13.82,1.9h.46l.6,3.4-.69,0a91.32,91.32,0,0,1-16.9-2.14A16.75,16.75,0,0,0,857,57.85Zm8.87-3.62a16.21,16.21,0,0,1,2.78.23,92.17,92.17,0,0,0,16,2.11l-.2-1.11a64.34,64.34,0,0,1-14-2l-.36-.09L869,51.1l.31-.2a63.6,63.6,0,0,1,12.43-6.67l-.2-1.11a93.55,93.55,0,0,0-14.31,7.45A17.77,17.77,0,0,1,856.5,52.7l.67,3.79A18.54,18.54,0,0,1,865.19,54.59Z"/>
    <path class="cls-3" d="M853.8,49.12l-5.3-4.46.65-.41a16.76,16.76,0,0,0,7-8.38,91.53,91.53,0,0,1,6.58-15.69l.34-.61,2.64,2.22-.23.41a63.08,63.08,0,0,0-5.26,12.91l.9.76A62.84,62.84,0,0,0,873,28.45l.37-.3L876,30.37l-.54.43A90.65,90.65,0,0,1,861.11,40a16.79,16.79,0,0,0-7,8.38Zm-3.39-4.34,3,2.47A17.81,17.81,0,0,1,860.55,39a92.82,92.82,0,0,0,13.63-8.68l-.86-.72a64.47,64.47,0,0,1-12,7.43l-.33.16-2-1.71.1-.35a64.92,64.92,0,0,1,5.24-13.1l-.86-.72a91.49,91.49,0,0,0-6.17,14.9A17.87,17.87,0,0,1,850.41,44.78Z"/>
  </g>
  <g>
    <rect class="cls-1" x="600.86" y="41.54" width="81.1" height="42.77" rx="7.82"/>
    <rect class="cls-1" x="681.97" y="49.4" width="19.7" height="8.77"/>
    <rect class="cls-1" x="681.97" y="67.68" width="19.7" height="8.77"/>
    <path class="cls-1" d="M565.57,23.43H549.81v8.41H562a3.53,3.53,0,0,1,3.54,3.54v28.2a3.55,3.55,0,0,0,3.55,3.55h31.74V58.72H577.52A3.55,3.55,0,0,1,574,55.18V27a3.55,3.55,0,0,0-3.54-3.54h-4.87"/>
    <ellipse class="cls-5" cx="702.85" cy="72.06" rx="2" ry="4.38"/>
    <ellipse class="cls-5" cx="702.85" cy="53.78" rx="2" ry="4.38"/>
  </g>
  <g>
    <rect class="cls-1" x="1091.54" y="47.51" width="81.1" height="42.77" rx="7.82" transform="translate(1708.48 1045.7) rotate(-124.03)"/>
    <rect class="cls-1" x="1086.47" y="27.86" width="19.7" height="8.77" transform="translate(1683.07 958.88) rotate(-124.03)"/>
    <rect class="cls-1" x="1101.61" y="17.63" width="19.7" height="8.77" transform="translate(1715.16 955.49) rotate(-124.03)"/>
    <path class="cls-1" d="M1141.8,153.85l8.82,13.07,7-4.71-6.84-10.13a3.54,3.54,0,0,1,1-4.92l19.35-13,4-2.73a3.54,3.54,0,0,0,1-4.92l-17.76-26.31-7,4.71,13.06,19.34a3.55,3.55,0,0,1-.95,4.92L1140,144.9a3.54,3.54,0,0,0-1,4.92l2.72,4"/>
    <ellipse class="cls-5" cx="1105.29" cy="12.87" rx="4.38" ry="2" transform="translate(182.05 620.7) rotate(-34.03)"/>
    <ellipse class="cls-5" cx="1090.14" cy="23.09" rx="4.38" ry="2" transform="matrix(0.83, -0.56, 0.56, 0.83, 173.73, 613.97)"/>
  </g>
</svg>
